Patient4_TMGait_0pt3_02_left_22_GRF.mot
version=1
nRows=45
nColumns=19
inDegrees=no
endheader
time	F1x	F1y	F1z	M1x	M1y	M1z	F2x	F2y	F2z	M2x	M2y	M2z	EC1x	EC1y	EC1z	EC2x	EC2y	EC2z
43.06	-9.277	1.8317	2.4969	-0.57263	-4.8984	4.3743	-38.0185	787.9676	-52.8677	317.4209	73.7239	828.5581	-0.0592	0.0182	-0.0073	-0.0462	0.0165	0.9585
43.0793	-6.3597	0.90565	1.6751	-0.27362	-3.3665	2.6539	-38.1041	790.1496	-53.264	317.2395	74.1101	830.1141	-0.0592	0.0182	-0.0073	-0.0462	0.0165	0.9585
43.0986	-3.9117	0.13506	0.98536	-0.027698	-2.0733	1.2036	-37.9738	792.5662	-53.5986	317.0724	74.2691	831.4792	-0.0592	0.0182	-0.0073	-0.0462	0.0165	0.9585
43.1179	-2.0622	-0.43765	0.46705	0.14967	-1.0944	0.11011	-37.5554	795.5475	-53.7538	317.1623	74.0521	832.9483	-0.0592	0.0182	-0.0073	-0.0462	0.0165	0.9585
43.1371	-0.79563	-0.8168	0.116	0.26092	-0.42634	-0.63	-36.8221	799.5565	-53.6209	317.8008	73.3469	834.9973	-0.0592	0.0182	-0.0073	-0.0462	0.0165	0.9585
43.1564	-0.026076	-1.0366	-0.093858	0.31902	-0.023182	-1.0714	-35.7931	804.8388	-53.1225	319.1626	72.0937	837.9158	-0.0592	0.0182	-0.0073	-0.0462	0.0165	0.9585
43.1757	0.35838	-1.1457	-0.1977	0.34303	0.17738	-1.2936	-34.5257	811.1881	-52.2322	321.1944	70.2988	841.5586	-0.0592	0.0182	-0.0073	-0.0462	0.0165	0.9585
43.195	0.46812	-1.1971	-0.22982	0.35325	0.23354	-1.3849	-33.1063	817.9042	-50.9947	323.5991	68.0507	845.2891	-0.0592	0.0182	-0.0073	-0.0462	0.0165	0.9585
43.2143	0.39727	-1.2473	-0.21849	0.36896	0.19585	-1.4346	-31.615	823.94	-49.5113	325.9131	65.4884	848.1173	-0.0592	0.0182	-0.0073	-0.0462	0.0165	0.9585
43.2336	0.2186	-1.3602	-0.18522	0.41089	0.10462	-1.5258	-30.0877	828.1716	-47.8975	327.6317	62.7452	848.9649	-0.0592	0.0182	-0.0073	-0.0462	0.0165	0.9585
43.2529	-0.012136	-1.5992	-0.14381	0.50048	-0.010475	-1.7373	-28.5035	829.6306	-46.2485	328.3164	59.9122	846.8908	-0.0592	0.0182	-0.0073	-0.0462	0.0165	0.9585
43.2721	-0.25189	-2.0181	-0.10175	0.65664	-0.12705	-2.1409	-26.7896	827.6827	-44.6346	327.6752	57.0337	841.2541	-0.0592	0.0182	-0.0073	-0.0462	0.0165	0.9585
43.2914	-0.46239	-2.6544	-0.069218	0.89317	-0.22107	-2.7855	-24.8323	822.146	-43.0992	325.6129	54.1131	831.836	-0.0592	0.0182	-0.0073	-0.0462	0.0165	0.9585
43.3107	-0.60623	-3.5164	-0.057065	1.2114	-0.26922	-3.6831	-22.5087	813.3004	-41.6517	322.2339	51.1191	818.8531	-0.0592	0.0182	-0.0073	-0.0462	0.0165	0.9585
43.33	-0.64177	-4.5594	-0.077656	1.5925	-0.24423	-4.7859	-19.6985	801.8146	-40.2799	317.8077	48.0049	802.8969	-0.0592	0.0182	-0.0073	-0.0462	0.0165	0.9585
43.3493	-0.51088	-5.6468	-0.14792	1.9861	-0.10817	-5.9478	-16.303	788.6297	-38.9682	312.7171	44.7287	784.8358	-0.0592	0.0182	-0.0073	-0.0462	0.0165	0.9585
43.3686	-0.13657	-6.5132	-0.28451	2.2963	0.18448	-6.8847	-12.2667	774.8266	-37.7069	307.4018	41.2678	765.7044	-0.0592	0.0182	-0.0073	-0.0462	0.0165	0.9585
43.3879	0.57025	-6.7336	-0.50331	2.3701	0.68212	-7.1452	-7.5878	761.4681	-36.5001	302.292	37.6304	746.5555	-0.0592	0.0182	-0.0073	-0.0462	0.0165	0.9585
43.4071	1.6964	-5.6923	-0.81592	1.9867	1.4288	-6.0722	-2.3229	749.3931	-35.3748	297.7234	33.8692	728.2664	-0.0592	0.0182	-0.0073	-0.0462	0.0165	0.9585
43.4264	3.2989	-2.5764	-1.2247	0.85621	2.4485	-2.789	3.4033	739.0432	-34.3791	293.8635	30.0845	711.3856	-0.0592	0.0182	-0.0073	-0.0462	0.0165	0.9585
43.4457	5.3646	3.5845	-1.7113	-1.3646	3.7175	3.756	9.3928	730.3514	-33.571	290.6645	26.411	696.0296	-0.0592	0.0182	-0.0073	-0.0462	0.0165	0.9585
43.465	7.75	13.7984	-2.219	-5.0297	5.1208	14.6628	15.372	722.7261	-32.9959	287.8603	22.9979	681.8719	-0.0592	0.0182	-0.0073	-0.0462	0.0165	0.9585
43.4843	10.1057	28.8751	-2.6337	-10.4182	6.4089	30.8326	21.0027	715.1232	-32.6585	285.0016	19.978	668.1992	-0.0592	0.0182	-0.0073	-0.0462	0.0165	0.9585
43.5036	11.8087	49.102	-2.7831	-17.6187	7.1703	52.6077	25.9018	706.2	-32.5114	281.5231	17.4569	654.0282	-0.0592	0.0182	-0.0073	-0.0462	0.0165	0.9585
43.5229	12.2106	74.0986	-2.455	-26.477	6.9388	79.6173	29.6785	694.584	-32.4608	276.8565	15.5083	638.3312	-0.0592	0.0182	-0.0073	-0.0462	0.0165	0.9585
43.5421	11.2272	103.0287	-1.4338	-36.6704	5.4419	110.9745	31.9895	679.1811	-32.3769	270.5588	14.1645	620.2817	-0.0592	0.0182	-0.0073	-0.0462	0.0165	0.9585
43.5614	9.1834	134.5254	0.45958	-47.691	2.5992	145.1558	32.6206	659.352	-32.1141	262.3891	13.3994	599.376	-0.0592	0.0182	-0.0073	-0.0462	0.0165	0.9585
43.5807	6.5374	166.8195	3.1469	-58.9181	-1.332	180.1755	31.5943	635.0499	-31.5369	252.3667	13.1034	575.5203	-0.0592	0.0182	-0.0073	-0.0462	0.0165	0.9585
43.6	3.7427	198.5122	6.2373	-69.8922	-5.7455	214.4288	29.2245	606.941	-30.5711	240.8068	13.101	549.1229	-0.0592	0.0182	-0.0073	-0.0462	0.0165	0.9585
43.6193	1.0976	229.1484	9.3883	-80.4866	-10.1513	247.3477	26.0331	576.2769	-29.2405	228.2553	13.2083	521.0256	-0.0592	0.0182	-0.0073	-0.0462	0.0165	0.9585
43.6386	-1.2842	259.0216	12.4062	-90.8223	-14.2994	279.2378	22.5866	544.5336	-27.6436	215.3347	13.2743	492.2569	-0.0592	0.0182	-0.0073	-0.0462	0.0165	0.9585
43.6579	-3.3979	288.5798	15.1983	-101.0593	-18.0961	310.6253	19.3489	513.0414	-25.9106	202.5914	13.2056	463.7699	-0.0592	0.0182	-0.0073	-0.0462	0.0165	0.9585
43.6771	-5.2468	317.8162	17.7371	-111.1869	-21.5222	341.5714	16.5896	482.783	-24.1725	190.4149	12.9822	436.2946	-0.0592	0.0182	-0.0073	-0.0462	0.0165	0.9585
43.6964	-6.8104	345.9994	19.9914	-120.934	-24.5428	371.3785	14.3808	454.3634	-22.5466	179.0298	12.6513	410.3065	-0.0592	0.0182	-0.0073	-0.0462	0.0165	0.9585
43.7157	-8.0651	371.839	21.8943	-129.8329	-27.0788	398.7659	12.6648	428.1118	-21.1337	168.5441	12.3029	386.0975	-0.0592	0.0182	-0.0073	-0.0462	0.0165	0.9585
43.735	-9.0096	393.9689	23.3504	-137.3904	-29.0264	422.3672	11.3443	404.2555	-20.0042	159.025	12.0216	363.8987	-0.0592	0.0182	-0.0073	-0.0462	0.0165	0.9585
43.7543	-9.6686	411.4389	24.2782	-143.2595	-30.3043	441.2313	10.3422	383.0364	-19.1784	150.5497	11.8456	343.9623	-0.0592	0.0182	-0.0073	-0.0462	0.0165	0.9585
43.7736	-10.098	423.9888	24.6573	-147.3393	-30.9084	455.1084	9.6401	364.7046	-18.6286	143.206	11.7556	326.5432	-0.0592	0.0182	-0.0073	-0.0462	0.0165	0.9585
43.7929	-10.3769	432.0726	24.5571	-149.7824	-30.9368	464.4715	9.2825	349.4197	-18.3044	137.0543	11.6937	311.8049	-0.0592	0.0182	-0.0073	-0.0462	0.0165	0.9585
43.8121	-10.6005	436.7035	24.1191	-150.9432	-30.5688	470.3481	9.3391	337.1234	-18.1518	132.0743	11.5919	299.7082	-0.0592	0.0182	-0.0073	-0.0462	0.0165	0.9585
43.8314	-10.8716	439.25	23.5154	-151.3088	-30.0198	474.1142	9.8557	327.4564	-18.1212	128.1311	11.3958	289.942	-0.0592	0.0182	-0.0073	-0.0462	0.0165	0.9585
43.8507	-11.2808	441.2513	22.9172	-151.4327	-29.5001	477.3049	10.8296	319.7602	-18.1596	124.9748	11.0676	281.9294	-0.0592	0.0182	-0.0073	-0.0462	0.0165	0.9585
43.87	-11.8962	444.2284	22.4707	-151.8663	-29.1827	481.4297	12.1932	313.1407	-18.2009	122.2625	10.5852	274.8965	-0.0592	0.0182	-0.0073	-0.0462	0.0165	0.9585
43.8893	-12.7565	449.5204	22.2792	-153.0926	-29.1835	487.8051	13.8109	306.5322	-18.1651	119.5832	9.9442	267.937	-0.0592	0.0182	-0.0073	-0.0462	0.0165	0.9585
43.9086	-13.8562	458.1672	22.4049	-155.4831	-29.5584	497.4397	15.4979	298.7598	-17.9635	116.4822	9.1504	260.064	-0.0592	0.0182	-0.0073	-0.0462	0.0165	0.9585
